<svg width="40" height="43" viewBox="0 0 40 43" fill="none" xmlns="http://www.w3.org/2000/svg">
<path d="M21 12.25C25.957 12.25 30 16.293 30 21.25C30 26.2422 25.957 30.25 21 30.25C16.0078 30.25 12 26.2422 12 21.25C12 16.293 16.0078 12.25 21 12.25ZM21 28.5625C25.0078 28.5625 28.3125 25.293 28.3125 21.25C28.3125 17.2422 25.0078 13.9375 21 13.9375C16.957 13.9375 13.6875 17.2422 13.6875 21.25C13.6875 25.293 16.957 28.5625 21 28.5625ZM21 24.0625C21.5977 24.0625 22.125 24.5547 22.125 25.1875C22.125 25.8203 21.5977 26.3125 21 26.3125C20.332 26.3125 19.875 25.8203 19.875 25.1875C19.875 24.5547 20.3672 24.0625 21 24.0625ZM22.1602 16.75C23.5664 16.75 24.6562 17.8398 24.6211 19.2109C24.6211 20.0547 24.1641 20.8633 23.4258 21.3203L21.8438 22.3047V22.375C21.8438 22.832 21.457 23.2188 21 23.2188C20.543 23.2188 20.1562 22.832 20.1562 22.375V21.8125C20.1562 21.5312 20.2969 21.25 20.5781 21.0742L22.582 19.8789C22.8281 19.7383 22.9688 19.4922 22.9688 19.2109C22.9688 18.7891 22.582 18.4375 22.125 18.4375H20.332C19.9102 18.4375 19.5938 18.7891 19.5938 19.2109C19.5938 19.668 19.207 20.0547 18.75 20.0547C18.293 20.0547 17.9062 19.668 17.9062 19.2109C17.9062 17.8398 18.9961 16.75 20.3672 16.75H22.1602Z" fill="#333333"/>
</svg>
